<?xml version="1.0" encoding="utf-8"?>
<!-- Generator: Adobe Illustrator 22.0.1, SVG Export Plug-In . SVG Version: 6.00 Build 0)  -->
<svg version="1.1" id="Layer_1" xmlns="http://www.w3.org/2000/svg" xmlns:xlink="http://www.w3.org/1999/xlink" x="0px" y="0px"
	 viewBox="0 0 221.3 43" style="enable-background:new 0 0 221.3 43;" xml:space="preserve">
<style type="text/css">
	.st0{fill:#FFFFFF;}
</style>
<g>
	<g>
		<path class="st0" d="M15.6,16.5h-2.8v3.4h2.8c0.4,0,0.6,0,0.8-0.2c0.2-0.2,0.3-0.3,0.3-1.4c0-1.1-0.1-1.3-0.3-1.5
			C16.2,16.5,16,16.5,15.6,16.5z"/>
		<path class="st0" d="M11.4,28.2c-0.2,0-0.4,0.2-0.4,0.4c0,0.3,0.2,0.4,0.4,0.4c0.3,0,0.4-0.2,0.4-0.4
			C11.8,28.4,11.6,28.2,11.4,28.2z"/>
		<path class="st0" d="M16.2,13.1c0.2-0.2,0.3-0.5,0.3-1.4c0-0.8-0.1-1.1-0.3-1.3c-0.1-0.1-0.3-0.2-0.7-0.2h-2.7v3h2.7
			C15.9,13.3,16.1,13.3,16.2,13.1z"/>
		<path class="st0" d="M1.5,1v40l12.4-6.4L26.5,41V1H1.5z M7.5,30.7H6.7v-2.2l-0.6,0.4v-0.7l0.7-0.5h0.8V30.7z M12.7,29.2
			c0,1-0.5,1.5-1.3,1.5c-0.7,0-1.1-0.3-1.2-0.9H11c0,0.2,0.1,0.3,0.4,0.3c0.4,0,0.5-0.3,0.5-0.8c-0.1,0.2-0.3,0.4-0.7,0.4
			c-0.6,0-1-0.3-1-1c0-0.6,0.5-1.1,1.3-1.1c0.9,0,1.3,0.6,1.3,1.5V29.2z M17,30.7h-2.5v-0.1l1.1-1.1c0.3-0.3,0.5-0.6,0.5-0.8
			c0-0.2-0.1-0.3-0.3-0.3c-0.2,0-0.4,0.1-0.4,0.5h-0.8c0-0.8,0.5-1.2,1.2-1.2c0.7,0,1.1,0.4,1.1,1c0,0.4-0.2,0.7-0.6,1.1L15.9,30h1
			V30.7z M20.6,30.7c-0.8,0-1.2-0.4-1.2-1h0.8c0,0.2,0.1,0.4,0.4,0.4c0.3,0,0.4-0.2,0.4-0.4c0-0.3-0.1-0.4-0.4-0.4
			c-0.2,0-0.4,0.1-0.5,0.2h-0.5l0.1-1.8h2.1v0.6h-1.4l0,0.7c0.1-0.2,0.3-0.3,0.7-0.3c0.6,0,0.9,0.4,0.9,1
			C21.8,30.3,21.3,30.7,20.6,30.7z M20.6,22.5c-0.7,0.7-1.6,1-3,1H6.1v-3.8h1.8v-9.4H6.1V6.6h11.6c1.5,0,2.3,0.3,2.9,0.9
			c0.8,0.8,1.1,2,1.1,3.3c0,2.6-0.9,3.6-2.7,4.1v0c1.9,0.5,2.8,1.3,2.8,4.1C21.8,20.7,21.3,21.8,20.6,22.5z"/>
	</g>
	<g>
		<g>
			<path class="st0" d="M40.7,11.9c-0.2,0.4-0.4,0.8-0.7,1c-0.3,0.3-0.6,0.5-1,0.6c-0.4,0.1-0.8,0.2-1.3,0.2s-0.9-0.1-1.3-0.2
				c-0.4-0.1-0.7-0.3-1-0.6c-0.3-0.3-0.5-0.6-0.7-1c-0.2-0.4-0.2-0.9-0.2-1.5V6.1h2.1v4.3c0,0.5,0.1,0.8,0.3,1.1
				c0.2,0.3,0.5,0.4,0.9,0.4c0.4,0,0.7-0.1,0.9-0.4c0.2-0.3,0.3-0.6,0.3-1.1V6.1h2.1v4.3C40.9,11,40.8,11.5,40.7,11.9z"/>
			<path class="st0" d="M48.4,13.5l-1.8-2.5c-0.1-0.1-0.2-0.3-0.3-0.4c-0.1-0.2-0.2-0.3-0.3-0.5c-0.1-0.2-0.2-0.3-0.3-0.5
				c-0.1-0.1-0.2-0.3-0.2-0.4c0,0.1,0,0.2,0,0.4c0,0.2,0,0.3,0,0.5c0,0.2,0,0.4,0,0.6c0,0.2,0,0.4,0,0.5v2.3h-2V6.1h1.8L47,8.3
				c0.1,0.1,0.2,0.3,0.3,0.4c0.1,0.2,0.2,0.3,0.3,0.5c0.1,0.2,0.2,0.3,0.3,0.5c0.1,0.1,0.2,0.3,0.2,0.3c0-0.1,0-0.2,0-0.4
				c0-0.2,0-0.3,0-0.5c0-0.2,0-0.4,0-0.6c0-0.2,0-0.4,0-0.5v-2h2v7.4H48.4z"/>
			<path class="st0" d="M53.1,13.5V6.1h2.1v7.4H53.1z"/>
			<path class="st0" d="M62.4,13.5h-2.1l-2.6-7.4h2.3l0.5,2c0.1,0.2,0.1,0.5,0.2,0.8c0.1,0.3,0.1,0.6,0.2,0.9
				c0.1,0.3,0.1,0.6,0.2,0.8c0.1,0.3,0.1,0.5,0.1,0.7c0-0.2,0.1-0.4,0.1-0.7c0.1-0.3,0.1-0.5,0.2-0.8c0.1-0.3,0.1-0.6,0.2-0.9
				c0.1-0.3,0.1-0.6,0.2-0.8l0.5-2H65L62.4,13.5z"/>
			<path class="st0" d="M67.5,13.5V6.1h5.7v1.7h-3.7v1h2.2v1.7h-2.2v1.3h3.7v1.7H67.5z"/>
			<path class="st0" d="M80.1,13.5L78.9,11h-0.8v2.5h-2V6.1h3.3c0.4,0,0.8,0,1.2,0.1c0.4,0.1,0.7,0.2,0.9,0.4s0.5,0.4,0.6,0.7
				c0.1,0.3,0.2,0.7,0.2,1.1c0,0.6-0.1,1-0.4,1.4c-0.2,0.4-0.6,0.6-1,0.8l1.5,2.8H80.1z M80.2,8.6c0-0.2-0.1-0.4-0.2-0.6
				c-0.1-0.1-0.4-0.2-0.7-0.2h-1.2v1.6h1.2c0.3,0,0.6-0.1,0.7-0.2C80.2,9.1,80.2,8.9,80.2,8.6z"/>
			<path class="st0" d="M91,11.3c0,0.4-0.1,0.8-0.2,1.1c-0.2,0.3-0.4,0.6-0.6,0.7c-0.3,0.2-0.6,0.3-1,0.4c-0.4,0.1-0.8,0.1-1.2,0.1
				c-0.6,0-1.2-0.1-1.7-0.3c-0.5-0.2-1-0.4-1.4-0.6l1-1.6c0.1,0.1,0.3,0.2,0.5,0.3c0.2,0.1,0.4,0.2,0.6,0.2c0.2,0.1,0.4,0.1,0.6,0.2
				c0.2,0,0.4,0.1,0.6,0.1c0.4,0,0.6,0,0.8-0.1c0.1-0.1,0.2-0.2,0.2-0.4c0-0.1,0-0.1-0.1-0.2c0-0.1-0.1-0.1-0.2-0.2
				c-0.1-0.1-0.2-0.1-0.4-0.2c-0.2-0.1-0.4-0.1-0.6-0.2c-0.4-0.1-0.8-0.2-1.2-0.3c-0.3-0.1-0.6-0.3-0.8-0.5
				c-0.2-0.2-0.4-0.4-0.5-0.7c-0.1-0.3-0.2-0.6-0.2-0.9c0-0.3,0.1-0.7,0.2-1c0.1-0.3,0.3-0.5,0.6-0.7c0.3-0.2,0.6-0.4,0.9-0.5
				C87.2,6,87.6,6,88,6c0.6,0,1.2,0.1,1.7,0.2c0.5,0.1,0.9,0.4,1.3,0.6l-1,1.6c-0.3-0.2-0.7-0.4-1-0.5c-0.3-0.1-0.7-0.2-1.1-0.2
				c-0.3,0-0.5,0-0.6,0.1c-0.1,0.1-0.1,0.2-0.1,0.3c0,0.1,0,0.1,0.1,0.2c0,0.1,0.1,0.1,0.2,0.1c0.1,0,0.2,0.1,0.4,0.1
				c0.2,0,0.4,0.1,0.6,0.2c0.5,0.1,0.9,0.2,1.2,0.4c0.3,0.1,0.6,0.3,0.8,0.5c0.2,0.2,0.4,0.4,0.5,0.7C91,10.6,91,10.9,91,11.3z"/>
			<path class="st0" d="M93.9,13.5V6.1H96v7.4H93.9z"/>
			<path class="st0" d="M102.9,7.9v5.6h-2.1V7.9h-2.1V6.1h6.2v1.8H102.9z"/>
			<path class="st0" d="M111.9,10.8v2.8h-2.1v-2.7L107,6.1h2.4l0.6,1.1c0.2,0.4,0.4,0.8,0.5,1.1s0.3,0.6,0.3,0.8
				c0.1-0.2,0.2-0.5,0.3-0.8c0.1-0.3,0.3-0.7,0.5-1.1l0.6-1.1h2.4L111.9,10.8z"/>
			<path class="st0" d="M128.8,9.8c0,0.6-0.1,1.2-0.3,1.6c-0.2,0.5-0.4,0.9-0.7,1.2c-0.3,0.3-0.7,0.6-1.1,0.7
				c-0.4,0.2-0.9,0.3-1.4,0.3s-1-0.1-1.4-0.2c-0.4-0.2-0.8-0.4-1.1-0.7c-0.3-0.3-0.5-0.7-0.7-1.2c-0.2-0.5-0.2-1-0.2-1.6
				s0.1-1.2,0.3-1.6c0.2-0.5,0.4-0.9,0.7-1.2c0.3-0.3,0.7-0.6,1.1-0.7c0.4-0.2,0.9-0.3,1.4-0.3c0.5,0,1,0.1,1.4,0.2
				c0.4,0.2,0.8,0.4,1.1,0.7c0.3,0.3,0.5,0.7,0.7,1.2C128.7,8.7,128.8,9.2,128.8,9.8z M126.7,9.8c0-0.7-0.1-1.2-0.3-1.5
				c-0.2-0.3-0.6-0.5-1-0.5c-0.4,0-0.7,0.2-1,0.5c-0.2,0.3-0.3,0.8-0.3,1.5c0,0.7,0.1,1.2,0.3,1.5c0.2,0.3,0.6,0.5,1,0.5
				c0.4,0,0.7-0.2,1-0.5C126.6,11,126.7,10.5,126.7,9.8z"/>
			<path class="st0" d="M133.6,7.9v1h2.3v1.7h-2.3v2.9h-2V6.1h5.9v1.8H133.6z"/>
		</g>
		<g>
			<path class="st0" d="M47.4,27c0,1.4-0.4,2.3-1,2.9c-0.6,0.6-1.3,0.8-2.5,0.8h-9.6v-3.1h1.5v-7.8h-1.5v-3.1H44
				c1.2,0,1.9,0.2,2.4,0.8c0.6,0.7,0.9,1.6,0.9,2.7c0,2.1-0.8,3-2.2,3.4v0C46.6,24,47.4,24.7,47.4,27z M42.2,22.3
				c0.3,0,0.5,0,0.6-0.1C42.9,22,43,21.7,43,21c0-0.7-0.1-0.9-0.2-1.1c-0.1-0.1-0.2-0.2-0.6-0.2H40v2.5H42.2z M40,27.7h2.3
				c0.4,0,0.5,0,0.7-0.2c0.1-0.1,0.2-0.3,0.2-1.2c0-0.9-0.1-1.1-0.2-1.2c-0.1-0.1-0.3-0.2-0.7-0.2H40V27.7z"/>
			<path class="st0" d="M48.7,30.7v-3.1h1.2l3.3-9.6c0.3-1,0.7-1.3,1.7-1.3h2.8c1,0,1.3,0.3,1.7,1.3l3.3,9.6h1.2v3.1h-6.9v-3.1h1.3
				l-0.3-1.2h-3.6l-0.3,1.2h1.3v3.1H48.7z M55,23.5h2l-0.9-3.2h-0.2L55,23.5z"/>
			<path class="st0" d="M66.9,19.8h-1.5v-3.1h7.2v3.1H71v7.8h3.1v-2.4h3.5v5.4H65.4v-3.1h1.5V19.8z"/>
			<path class="st0" d="M88.5,27.6v3.1h-7.3v-3.1h1.6v-7.8h-1.7v2.6H78v-5.6h13.8v5.6h-3.2v-2.6h-1.7v7.8H88.5z"/>
			<path class="st0" d="M100.9,27.6v3.1h-7.2v-3.1h1.5v-7.8h-1.5v-3.1h7.2v3.1h-1.5v7.8H100.9z"/>
			<path class="st0" d="M108.4,20.8v6.8h1.1v3.1h-6.3v-3.1h1.5v-7.8h-1.5v-3.1h7.6c0.6,0,0.9,0.2,1,0.8l1.3,6.5h0.2l1.3-6.5
				c0.1-0.6,0.4-0.8,1-0.8h7.5v3.1h-1.5v7.8h1.5v3.1h-6.7v-3.1h1.1v-6.8h-0.2l-2.1,9.1c-0.1,0.6-0.4,0.8-0.9,0.8h-2.6
				c-0.5,0-0.8-0.2-0.9-0.8l-2.1-9.1H108.4z"/>
			<path class="st0" d="M133.2,16.7c1.5,0,2.1,0.2,2.6,0.8c0.8,0.8,1.3,2.4,1.3,6.2c0,3.9-0.5,5.4-1.3,6.2c-0.5,0.5-1.1,0.8-2.6,0.8
				h-4.9c-1.5,0-2.1-0.2-2.6-0.8c-0.8-0.8-1.3-2.4-1.3-6.2c0-3.9,0.5-5.4,1.3-6.2c0.5-0.5,1.1-0.8,2.6-0.8H133.2z M129,27.4
				c0.1,0.1,0.3,0.2,0.9,0.2h1.7c0.6,0,0.8,0,0.9-0.2c0.1-0.1,0.2-0.6,0.2-3.6c0-3.1-0.1-3.5-0.2-3.6c-0.1-0.1-0.3-0.2-0.9-0.2h-1.7
				c-0.6,0-0.8,0-0.9,0.2c-0.1,0.1-0.2,0.6-0.2,3.6C128.7,26.8,128.8,27.2,129,27.4z"/>
			<path class="st0" d="M151.2,27.6h1.3v3.1h-3.7c-0.8,0-1.1-0.1-1.4-0.4c-0.3-0.3-0.5-0.8-0.5-3.1c0-1-0.1-1.3-0.3-1.5
				c-0.2-0.2-0.4-0.3-1.1-0.3h-1.4v2.2h1.5v3.1h-7.1v-3.1h1.5v-7.8h-1.5v-3.1h9.5c1.2,0,2,0.2,2.5,0.7c0.6,0.6,0.8,1.4,0.8,3.1
				c0,2.5-0.7,3.1-2.3,3.4v0c1.4,0.3,2.1,0.8,2.1,2.8C151.2,27.1,151.2,27.4,151.2,27.6z M145.9,22.6c0.6,0,0.8,0,0.9-0.2
				c0.2-0.2,0.2-0.5,0.2-1.2s0-1-0.2-1.2c-0.1-0.1-0.3-0.2-0.9-0.2h-1.8v2.8H145.9z"/>
			<path class="st0" d="M154.5,19.8v-3.1h12.5v5.1h-3.5v-2H160v2.4h2.9v2.9H160v2.6h3.4v-2.3h3.5v5.4h-12.5v-3.1h1.5v-7.8H154.5z"/>
		</g>
	</g>
</g>
</svg>
